<?xml version="1.0" encoding="utf-8"?>
<!-- Generator: Adobe Illustrator 24.2.3, SVG Export Plug-In . SVG Version: 6.00 Build 0)  -->
<svg version="1.1" xmlns="http://www.w3.org/2000/svg" xmlns:xlink="http://www.w3.org/1999/xlink" x="0px" y="0px"
	 viewBox="0 0 500 500" style="enable-background:new 0 0 500 500;" xml:space="preserve">
<style type="text/css">
	.st0{fill:#EBEBEB;}
	.st1{fill:#F5F5F5;}
	.st2{fill:#FAFAFA;}
	.st3{fill:#E0E0E0;}
	.st4{fill:#FFFFFF;}
	.st5{display:none;}
	.st6{display:inline;}
	.st7{fill:#00801a;}
	.st8{opacity:0.9;fill:#FFFFFF;}
	.st9{fill:none;stroke:#00801a;stroke-miterlimit:10;}
	.st10{opacity:0.2;fill:#FFFFFF;enable-background:new    ;}
	.st11{opacity:0.5;fill:#FFFFFF;enable-background:new    ;}
	.st12{fill:#263238;}
	.st13{opacity:0.2;fill:#FFFFFF;}
	.st14{opacity:0.2;enable-background:new    ;}
	.st15{fill:none;stroke:#FFFFFF;stroke-width:2;stroke-linecap:round;stroke-linejoin:round;stroke-miterlimit:10;}
	.st16{opacity:0.4;enable-background:new    ;}
	.st17{opacity:0.4;fill:#FFFFFF;}
	.st18{fill:#B97964;}
	.st19{fill:none;stroke:#00801a;stroke-width:0.4831;stroke-linecap:round;stroke-linejoin:round;stroke-miterlimit:10;}
	.st20{fill:#A24E3F;}
	.st21{fill:none;stroke:#263238;stroke-width:0.7247;stroke-linecap:round;stroke-linejoin:round;stroke-miterlimit:10;}
</style>
<g id="Background_Complete">
	<g>
		<rect y="382.4" class="st0" width="500" height="0.2"/>
		<rect x="416.8" y="398.5" class="st0" width="33.1" height="0.2"/>
		<rect x="322.5" y="401.2" class="st0" width="8.7" height="0.2"/>
		<rect x="396.6" y="389.2" class="st0" width="19.2" height="0.2"/>
		<rect x="52.5" y="390.9" class="st0" width="43.2" height="0.2"/>
		<rect x="104.6" y="390.9" class="st0" width="6.3" height="0.2"/>
		<rect x="131.5" y="395.1" class="st0" width="93.7" height="0.2"/>
		<path class="st0" d="M237,337.8H43.9c-3.1,0-5.7-2.6-5.7-5.7V60.7c0-3.1,2.6-5.7,5.7-5.7H237c3.1,0,5.7,2.6,5.7,5.7v271.4
			C242.7,335.2,240.2,337.8,237,337.8z M43.9,55.2c-3,0-5.5,2.4-5.5,5.5v271.4c0,3,2.4,5.5,5.5,5.5H237c3,0,5.5-2.4,5.5-5.5V60.7
			c0-3-2.4-5.5-5.5-5.5H43.9z"/>
		<path class="st0" d="M453.3,337.8H260.2c-3.1,0-5.7-2.6-5.7-5.7V60.7c0-3.1,2.6-5.7,5.7-5.7h193.1c3.1,0,5.7,2.6,5.7,5.7v271.4
			C459,335.2,456.5,337.8,453.3,337.8z M260.2,55.2c-3,0-5.5,2.4-5.5,5.5v271.4c0,3,2.4,5.5,5.5,5.5h193.1c3,0,5.5-2.4,5.5-5.5V60.7
			c0-3-2.4-5.5-5.5-5.5H260.2z"/>
	</g>
	<g>
		<rect x="108.9" y="102.5" class="st1" width="300.2" height="220.5"/>
		<path class="st2" d="M286.9,158.6c0-3.4,2.8-6.2,6.2-6.2c0.6,0,1.2,0.1,1.8,0.3c-0.1-0.6-0.1-1.3-0.1-1.9
			c0-7.3,5.9-13.1,13.1-13.1c0.8,0,1.6,0.1,2.4,0.2c2-3.3,5.7-5.5,9.8-5.5c6.3,0,11.4,5.1,11.5,11.3c0.1,0,0.1,0,0.2,0
			c5.8,0,10.6,4.7,10.6,10.6c0,5.8-4.7,10.6-10.6,10.6h-38.9l0,0C289.6,164.7,286.9,162,286.9,158.6z"/>
		<path class="st2" d="M202,212.3c0-3.4,2.8-6.2,6.2-6.2c0.6,0,1.2,0.1,1.8,0.3c-0.1-0.6-0.1-1.3-0.1-1.9c0-7.3,5.9-13.1,13.1-13.1
			c0.8,0,1.6,0.1,2.4,0.2c2-3.3,5.7-5.5,9.8-5.5c6.3,0,11.4,5.1,11.5,11.3c0.1,0,0.1,0,0.2,0c5.8,0,10.6,4.7,10.6,10.6
			c0,5.8-4.7,10.6-10.6,10.6H208l0,0C204.7,218.4,202,215.7,202,212.3z"/>
		<path class="st2" d="M136.6,181.4c0-1.8,1.4-3.2,3.2-3.2c0.3,0,0.6,0,0.9,0.1c0-0.3-0.1-0.7-0.1-1c0-3.8,3.1-6.9,6.9-6.9
			c0.4,0,0.9,0,1.3,0.1c1.1-1.7,2.9-2.9,5.1-2.9c3.3,0,5.9,2.6,6,5.9c0,0,0.1,0,0.1,0c3,0,5.5,2.5,5.5,5.5c0,3-2.5,5.5-5.5,5.5
			h-20.3l0,0C138,184.6,136.6,183.1,136.6,181.4z"/>
		<path class="st2" d="M369.5,245.7c0-1.8,1.4-3.2,3.2-3.2c0.3,0,0.6,0,0.9,0.1c0-0.3-0.1-0.7-0.1-1c0-3.8,3.1-6.9,6.9-6.9
			c0.4,0,0.9,0,1.3,0.1c1.1-1.7,2.9-2.9,5.1-2.9c3.3,0,5.9,2.6,6,5.9c0,0,0.1,0,0.1,0c3,0,5.5,2.5,5.5,5.5c0,3-2.5,5.5-5.5,5.5
			h-20.3l0,0C370.9,248.9,369.5,247.5,369.5,245.7z"/>
		<g>
			<polygon class="st3" points="409.1,323 409.1,314.5 371.8,314.5 368.6,239.9 368.2,234.6 373.1,234.6 392.5,224.7 394.5,215.8 
				396.1,208.6 398.1,199.6 399.8,192.1 392.5,185.9 369.9,185.9 369.9,182.7 372.6,182.7 373.7,176.2 376.6,158.8 377,156.8 
				369.9,156.8 369.9,152.3 362.3,152.3 362.3,145.5 360.4,145.5 360.4,142.3 362.3,142.3 362.3,140.7 348,140.7 348,142.3 
				349.9,142.3 349.9,145.5 348,145.5 348,152.3 340.5,152.3 340.5,156.8 333.4,156.8 333.7,158.8 336.6,176.2 337.7,182.7 
				340.5,182.7 340.5,185.9 317.9,185.9 310.6,192.1 312.3,199.6 314.2,208.6 315.9,215.8 317.9,224.7 337.2,234.6 342.1,234.6 
				341.7,239.9 338.6,314.5 264.1,314.5 264.1,288.8 261,288.8 261,280.7 231.6,280.7 231.6,268.1 178.6,268.1 178.6,260.8 
				179.6,260.8 179.6,258.6 127.2,258.6 127.2,260.8 128.5,260.8 128.5,268.1 125.9,268.1 125.9,280.7 108.9,280.7 108.9,323 			"/>
			<g>
				<polygon class="st0" points="338.2,199.6 342.8,199.6 342.5,192.1 337.8,192.1 				"/>
				<polygon class="st0" points="337.3,199.6 336.8,192.1 332.6,192.1 333.2,199.6 				"/>
				<polygon class="st0" points="348.7,192.1 343.5,192.1 343.8,199.6 348.8,199.6 				"/>
				<polygon class="st0" points="349.8,199.6 354.9,199.6 354.9,192.1 349.6,192.1 				"/>
				<polygon class="st0" points="327.2,199.6 326.4,192.1 322.7,192.1 323.6,199.6 				"/>
				<polygon class="st0" points="318.5,199.6 317.5,192.1 314.7,192.1 315.9,199.6 				"/>
				<polygon class="st0" points="332.2,199.6 331.6,192.1 327.4,192.1 328.1,199.6 				"/>
				<polygon class="st0" points="322.6,199.6 321.7,192.1 318.5,192.1 319.5,199.6 				"/>
				<polygon class="st0" points="355.9,199.6 361,199.6 361.1,192.1 355.9,192.1 				"/>
				<polygon class="st0" points="383.4,192.1 379.1,192.1 378.5,199.6 382.6,199.6 				"/>
				<polygon class="st0" points="394.8,199.6 396,192.1 393.3,192.1 392.2,199.6 				"/>
				<polygon class="st0" points="313.7,192.1 310.6,192.1 312.3,199.6 314.9,199.6 				"/>
				<polygon class="st0" points="397,192.1 395.8,199.6 398.1,199.6 399.8,192.1 				"/>
				<polygon class="st0" points="392.3,192.1 389,192.1 388.1,199.6 391.2,199.6 				"/>
				<polygon class="st0" points="373.5,199.6 377.6,199.6 378.2,192.1 373.9,192.1 				"/>
				<polygon class="st0" points="388.1,192.1 384.3,192.1 383.6,199.6 387.2,199.6 				"/>
				<polygon class="st0" points="368,199.6 372.5,199.6 373,192.1 368.3,192.1 				"/>
				<polygon class="st0" points="361.9,199.6 367,199.6 367.3,192.1 362.1,192.1 				"/>
				<polygon class="st0" points="344.4,176.2 343.4,158.8 339.2,158.8 340.6,176.2 				"/>
				<polygon class="st0" points="349.6,176.2 349.1,158.8 344.4,158.8 345.3,176.2 				"/>
				<polygon class="st0" points="373.7,176.2 375.8,164 376.3,158.8 372.5,158.8 371.1,176.2 				"/>
				<polygon class="st0" points="336.6,176.2 339.7,176.2 338.2,158.8 334.4,158.8 335.7,170.9 				"/>
				<polygon class="st0" points="360.7,158.8 355.8,158.8 355.8,176.2 360.2,176.2 				"/>
				<polygon class="st0" points="370.2,176.2 371.6,158.8 367.3,158.8 366.3,176.2 				"/>
				<polygon class="st0" points="366.4,158.8 361.6,158.8 361.1,176.2 365.4,176.2 				"/>
				<polygon class="st0" points="350.1,158.8 350.6,176.2 354.9,176.2 354.9,158.8 				"/>
				<polygon class="st0" points="344.1,208.5 344.4,215.8 349.1,215.8 349,208.5 				"/>
				<polygon class="st0" points="338.8,208.5 339.2,215.8 343.4,215.8 343.1,208.5 				"/>
				<polygon class="st0" points="350.1,215.8 354.9,215.8 354.9,208.5 350,208.5 				"/>
				<polygon class="st0" points="355.9,215.8 360.6,215.8 360.8,208.5 355.9,208.5 				"/>
				<polygon class="st0" points="333.9,208.5 334.5,215.8 338.2,215.8 337.8,208.5 				"/>
				<polygon class="st0" points="317.4,208.5 318.5,215.8 320.8,215.8 319.8,208.5 				"/>
				<polygon class="st0" points="329,208.5 329.8,215.8 333.5,215.8 332.9,208.5 				"/>
				<polygon class="st0" points="320.8,208.5 321.8,215.8 324.6,215.8 323.7,208.5 				"/>
				<polygon class="st0" points="324.7,208.5 325.5,215.8 328.8,215.8 328.1,208.5 				"/>
				<polygon class="st0" points="377.2,215.8 381,215.8 381.7,208.5 377.8,208.5 				"/>
				<polygon class="st0" points="390.9,208.5 389.9,215.8 392.2,215.8 393.4,208.5 				"/>
				<polygon class="st0" points="381.9,215.8 385.2,215.8 386.1,208.5 382.7,208.5 				"/>
				<polygon class="st0" points="387.1,208.5 386.2,215.8 389,215.8 390,208.5 				"/>
				<polygon class="st0" points="314.2,208.5 315.9,215.8 317.6,215.8 316.4,208.5 				"/>
				<polygon class="st0" points="367.3,215.8 371.5,215.8 372,208.5 367.6,208.5 				"/>
				<polygon class="st0" points="361.6,215.8 366.3,215.8 366.6,208.5 361.8,208.5 				"/>
				<polygon class="st0" points="372.5,215.8 376.3,215.8 376.8,208.5 372.9,208.5 				"/>
				<polygon class="st0" points="393.2,215.8 394.5,215.8 396.1,208.5 394.4,208.5 				"/>
			</g>
			<g>
				<rect x="128.8" y="261.2" class="st0" width="2.4" height="2.6"/>
				<rect x="132.3" y="261.2" class="st0" width="2.4" height="2.6"/>
				<rect x="135.9" y="261.2" class="st0" width="2.4" height="2.6"/>
				<rect x="139.4" y="261.2" class="st0" width="2.4" height="2.6"/>
				<rect x="143" y="261.2" class="st0" width="2.4" height="2.6"/>
				<rect x="146.6" y="261.2" class="st0" width="2.4" height="2.6"/>
				<rect x="150.1" y="261.2" class="st0" width="2.4" height="2.6"/>
				<rect x="153.7" y="261.2" class="st0" width="2.4" height="2.6"/>
				<rect x="157.3" y="261.2" class="st0" width="2.4" height="2.6"/>
				<rect x="160.8" y="261.2" class="st0" width="2.4" height="2.6"/>
				<rect x="164.4" y="261.2" class="st0" width="2.4" height="2.6"/>
				<rect x="168" y="261.2" class="st0" width="2.4" height="2.6"/>
				<rect x="171.5" y="261.2" class="st0" width="2.4" height="2.6"/>
				<rect x="175.1" y="261.2" class="st0" width="2.4" height="2.6"/>
				<rect x="127" y="271" class="st0" width="2.4" height="2.6"/>
				<rect x="130.7" y="271" class="st0" width="2.4" height="2.6"/>
				<rect x="134.4" y="271" class="st0" width="2.4" height="2.6"/>
				<rect x="138.1" y="271" class="st0" width="2.4" height="2.6"/>
				<rect x="141.9" y="271" class="st0" width="2.4" height="2.6"/>
				<rect x="145.6" y="271" class="st0" width="2.4" height="2.6"/>
				<rect x="149.3" y="271" class="st0" width="2.4" height="2.6"/>
				<rect x="153" y="271" class="st0" width="2.4" height="2.6"/>
				<rect x="156.7" y="271" class="st0" width="2.4" height="2.6"/>
				<rect x="160.4" y="271" class="st0" width="2.4" height="2.6"/>
				<rect x="164.2" y="271" class="st0" width="2.4" height="2.6"/>
				<rect x="167.9" y="271" class="st0" width="2.4" height="2.6"/>
				<rect x="171.6" y="271" class="st0" width="2.4" height="2.6"/>
				<rect x="175.3" y="271" class="st0" width="2.4" height="2.6"/>
				<rect x="179" y="271" class="st0" width="2.4" height="2.6"/>
				<rect x="182.8" y="271" class="st0" width="2.4" height="2.6"/>
				<rect x="186.5" y="271" class="st0" width="2.4" height="2.6"/>
				<rect x="190.2" y="271" class="st0" width="2.4" height="2.6"/>
				<rect x="193.9" y="271" class="st0" width="2.4" height="2.6"/>
				<rect x="197.6" y="271" class="st0" width="2.4" height="2.6"/>
				<rect x="201.3" y="271" class="st0" width="2.4" height="2.6"/>
				<rect x="205.1" y="271" class="st0" width="2.4" height="2.6"/>
				<rect x="208.8" y="271" class="st0" width="2.4" height="2.6"/>
				<rect x="212.5" y="271" class="st0" width="2.4" height="2.6"/>
				<rect x="216.2" y="271" class="st0" width="2.4" height="2.6"/>
				<rect x="219.9" y="271" class="st0" width="2.4" height="2.6"/>
				<rect x="223.7" y="271" class="st0" width="2.4" height="2.6"/>
				<rect x="227.4" y="271" class="st0" width="2.4" height="2.6"/>
			</g>
		</g>
		<g>
			<rect x="307.3" y="102.5" class="st4" width="2.1" height="220.5"/>
		</g>
		<g>
			<rect x="207.6" y="102.5" class="st4" width="2.1" height="220.5"/>
		</g>
	</g>
</g>
<g id="Background_Simple" class="st5">
	<g class="st6">
		<path class="st7" d="M223.2,84.4c19.7-2.3,39.5,1.2,55.8,13.7c19.6,15,25.1,37.8,30.6,60.5c5,20.5,15.7,35.8,34.6,45.8
			c24.7,13.1,48.8,33.1,56.1,61.3c7,27.3-0.8,60.9-23,79.4c-20.6,17.1-49.3,19.1-76,20.7c-34.8,2.1-69.9,4.9-104.5,0.1
			c-22.7-3.1-45.6-9.9-63.5-24.2c-19.8-15.8-32-39.9-36.2-64.8c-4.3-24.9-1-50.7,6-75c8.9-30.8,24.2-60.3,47.5-82.4
			C168.7,101.9,196,87.6,223.2,84.4z"/>
		<path class="st8" d="M223.2,84.4c19.7-2.3,39.5,1.2,55.8,13.7c19.6,15,25.1,37.8,30.6,60.5c5,20.5,15.7,35.8,34.6,45.8
			c24.7,13.1,48.8,33.1,56.1,61.3c7,27.3-0.8,60.9-23,79.4c-20.6,17.1-49.3,19.1-76,20.7c-34.8,2.1-69.9,4.9-104.5,0.1
			c-22.7-3.1-45.6-9.9-63.5-24.2c-19.8-15.8-32-39.9-36.2-64.8c-4.3-24.9-1-50.7,6-75c8.9-30.8,24.2-60.3,47.5-82.4
			C168.7,101.9,196,87.6,223.2,84.4z"/>
	</g>
</g>
<g id="Shadow_1_">
	<ellipse id="_x3C_Path_x3E__359_" class="st1" cx="250" cy="416.2" rx="193.9" ry="11.3"/>
</g>
<g id="Plant">
	<g>
		<g>
			<path class="st9" d="M115.4,348.7c0,0,6.3-5.3,11.8,0c5.4,5.3,6.5,38.1,6.5,38.1"/>
			<path class="st9" d="M134.1,393.1c0,0-3.7-38.5,10.3-54.6"/>
			<path class="st9" d="M132.8,389.1c0,0,2.9-43.8-7.7-53.5"/>
			<path class="st9" d="M134.1,389.1c0,0,0.2-28.9,8.1-33.4c7.9-4.5,11.9,10.2,11.9,10.2"/>
			<path class="st9" d="M131,389.1c0,0,1.3-22.2-4.8-30.2c-6.1-7.9-12.5,3.4-12.5,3.4"/>
			<path class="st9" d="M133.2,392.1c0,0-3.9-52,2.6-60.8"/>
		</g>
		<g>
			<path class="st7" d="M149,359.9c0,0-3.9,1.4-2.8,4.9c1.2,3.4,13.5,9,13.5,9s5.2-4.8,0.4-12.5C155.4,353.5,149.1,357.4,149,359.9z
				"/>
			<path class="st10" d="M149,359.9c0,0-3.9,1.4-2.8,4.9c1.2,3.4,13.5,9,13.5,9s5.2-4.8,0.4-12.5C155.4,353.5,149.1,357.4,149,359.9
				z"/>
		</g>
		<g>
			<path class="st7" d="M131.9,353.4c0,0,4.2-0.2,4.4,3.4c0.2,3.6-9,13.5-9,13.5s-6.6-2.4-5.2-11.4
				C123.5,350,130.9,351.2,131.9,353.4z"/>
			<path class="st10" d="M131.9,353.4c0,0,4.2-0.2,4.4,3.4c0.2,3.6-9,13.5-9,13.5s-6.6-2.4-5.2-11.4
				C123.5,350,130.9,351.2,131.9,353.4z"/>
		</g>
		<g>
			<path class="st7" d="M128.4,336.2c0,0,2.8-0.3,2.6-2c-0.2-1.7-10.8-6.1-17,1c0,0,4,6.9,9.8,7
				C129.5,342.2,128.4,336.2,128.4,336.2z"/>
			<path class="st10" d="M128.4,336.2c0,0,2.8-0.3,2.6-2c-0.2-1.7-10.8-6.1-17,1c0,0,4,6.9,9.8,7
				C129.5,342.2,128.4,336.2,128.4,336.2z"/>
		</g>
		<g>
			<path class="st7" d="M133.6,332.1c0,0-2.5,1.2-3.2-0.3c-0.7-1.6,6-10.8,15-8.2c0,0,0.2,7.9-4.6,11.1
				C135.9,337.8,133.6,332.1,133.6,332.1z"/>
			<path class="st10" d="M133.6,332.1c0,0-2.5,1.2-3.2-0.3c-0.7-1.6,6-10.8,15-8.2c0,0,0.2,7.9-4.6,11.1
				C135.9,337.8,133.6,332.1,133.6,332.1z"/>
		</g>
		<g>
			<path class="st7" d="M120.4,358.5c0,0,1.9-1.5-0.2-2.3c-2.1-0.8-12.2-0.5-12.3,9.5c0,0,11.8,2,13.3-1.9
				C122.7,360,120.4,358.5,120.4,358.5z"/>
			<path class="st10" d="M120.4,358.5c0,0,1.9-1.5-0.2-2.3c-2.1-0.8-12.2-0.5-12.3,9.5c0,0,11.8,2,13.3-1.9
				C122.7,360,120.4,358.5,120.4,358.5z"/>
		</g>
		<g>
			<path class="st7" d="M144.6,335.9c0,0-1.9-1.5,0.2-2.3c2.1-0.8,12.2-0.5,12.3,9.5c0,0-11.8,2-13.3-1.9
				C142.3,337.4,144.6,335.9,144.6,335.9z"/>
			<path class="st10" d="M144.6,335.9c0,0-1.9-1.5,0.2-2.3c2.1-0.8,12.2-0.5,12.3,9.5c0,0-11.8,2-13.3-1.9
				C142.3,337.4,144.6,335.9,144.6,335.9z"/>
		</g>
		<g>
			<path class="st7" d="M138.3,344c0,0-0.2-1.9,1.4-1.1c1.5,0.7,6.8,6.5,1.3,11.9c0,0-7.4-5.5-6.1-8.3
				C136.3,343.6,138.3,344,138.3,344z"/>
			<path class="st10" d="M138.3,344c0,0-0.2-1.9,1.4-1.1c1.5,0.7,6.8,6.5,1.3,11.9c0,0-7.4-5.5-6.1-8.3
				C136.3,343.6,138.3,344,138.3,344z"/>
		</g>
		<g>
			<path class="st7" d="M118.7,346.7c0,0,1.1-1.5-0.5-1.7c-1.7-0.2-9.2,1.8-7.5,9.3c0,0,9.2-0.7,9.6-3.8
				C120.7,347.4,118.7,346.7,118.7,346.7z"/>
			<path class="st10" d="M118.7,346.7c0,0,1.1-1.5-0.5-1.7c-1.7-0.2-9.2,1.8-7.5,9.3c0,0,9.2-0.7,9.6-3.8
				C120.7,347.4,118.7,346.7,118.7,346.7z"/>
		</g>
		<polygon class="st7" points="149.7,417 118.2,417 114.8,382.5 153.1,382.5 		"/>
		<polygon class="st11" points="149.7,417 118.2,417 114.8,382.5 153.1,382.5 		"/>
		<rect x="113.2" y="378.7" class="st7" width="41.6" height="7.6"/>
		<rect x="113.2" y="378.7" class="st10" width="41.6" height="7.6"/>
	</g>
</g>
<g id="Schedule">
	<g>
		<g>
			<rect x="96.5" y="102.5" class="st12" width="12.5" height="19.5"/>
			<rect x="96.5" y="102.5" class="st13" width="12.5" height="19.5"/>
			<rect x="216.5" y="102.5" class="st12" width="12.5" height="19.5"/>
			<rect x="216.5" y="102.5" class="st13" width="12.5" height="19.5"/>
		</g>
		
			<rect x="107.8" y="82.5" transform="matrix(-1.836970e-16 1 -1 -1.836970e-16 338.1863 12.6838)" class="st12" width="110" height="186"/>
		
			<rect x="112.8" y="87.5" transform="matrix(-1.836970e-16 1 -1 -1.836970e-16 338.1863 12.6838)" class="st7" width="100" height="176"/>
		<g>
			<rect x="79.6" y="130.3" class="st14" width="14.8" height="12.3"/>
			<g>
				<path class="st4" d="M87.7,137.3l1.7,1.2l0.5-0.4c0.2-0.1,0.2-0.4,0.1-0.6l-1-1.1L87.7,137.3z"/>
				<path class="st4" d="M91.3,133.6L91.3,133.6l-0.4,0c-0.3,0-0.6,0.1-0.8,0.3l-2.1,1.5l-4.8-0.9c-0.2,0-0.3,0-0.5,0.1l-0.7,0.5
					l4.2,1.5l-2,1.4l-1.5,0c-0.2,0-0.4,0.1-0.5,0.2l-0.7,0.5l2,1.1l7.3-5.1l1.4-1l0.6-0.4C92.2,133,91.3,133.6,91.3,133.6z"/>
			</g>
			<rect x="98.9" y="130.3" class="st14" width="81" height="12.3"/>
			<g>
				<line class="st15" x1="104.2" y1="134.4" x2="152.8" y2="134.4"/>
				<line class="st15" x1="104.2" y1="138.4" x2="121.6" y2="138.4"/>
			</g>
			
				<rect x="184.1" y="130.3" transform="matrix(-1 -1.224647e-16 1.224647e-16 -1 430.0081 272.8352)" class="st16" width="61.7" height="12.3"/>
			<g>
				<path class="st4" d="M196.9,136.1c0-1.3,1-2.3,2.4-2.3c0.7,0,1.3,0.3,1.7,0.7l-0.5,0.5c-0.3-0.3-0.7-0.5-1.2-0.5
					c-0.9,0-1.6,0.6-1.6,1.6s0.7,1.6,1.6,1.6c0.5,0,0.9-0.2,1.2-0.5l0.5,0.5c-0.4,0.5-1,0.7-1.8,0.7
					C197.9,138.3,196.9,137.4,196.9,136.1z"/>
				<path class="st4" d="M204.6,137.2h-2.2l-0.4,1h-0.8l2-4.4h0.8l2,4.4H205L204.6,137.2z M204.3,136.6l-0.8-1.9l-0.8,1.9H204.3z"/>
				<path class="st4" d="M210.4,133.8v4.4h-0.7l-2.4-3v3h-0.8v-4.4h0.7l2.4,3v-3H210.4z"/>
				<path class="st4" d="M211.2,136.1c0-1.3,1-2.3,2.4-2.3c0.7,0,1.3,0.3,1.8,0.7l-0.5,0.5c-0.3-0.3-0.7-0.5-1.2-0.5
					c-0.9,0-1.6,0.6-1.6,1.6s0.7,1.6,1.6,1.6c0.5,0,0.9-0.2,1.2-0.5l0.5,0.5c-0.4,0.5-1,0.7-1.8,0.7
					C212.2,138.3,211.2,137.4,211.2,136.1z"/>
				<path class="st4" d="M219.5,137.6v0.7h-3.3v-4.4h3.2v0.7H217v1.1h2.1v0.7H217v1.2H219.5z"/>
				<path class="st4" d="M220.4,133.8h0.8v3.7h2.3v0.7h-3.1V133.8z"/>
				<path class="st4" d="M227.5,137.6v0.7h-3.3v-4.4h3.2v0.7H225v1.1h2.1v0.7H225v1.2H227.5z"/>
				<path class="st4" d="M228.4,133.8h1.9c1.4,0,2.4,0.9,2.4,2.2c0,1.3-1,2.2-2.4,2.2h-1.9V133.8z M230.3,137.6c1,0,1.6-0.6,1.6-1.5
					s-0.6-1.5-1.6-1.5h-1.1v3H230.3z"/>
			</g>
		</g>
		<g>
			<rect x="79.6" y="145.8" class="st14" width="14.8" height="12.3"/>
			<g>
				<path class="st4" d="M87.7,152.8l1.7,1.2l0.5-0.4c0.2-0.1,0.2-0.4,0.1-0.6l-1-1.1L87.7,152.8z"/>
				<path class="st4" d="M91.3,149.1L91.3,149.1l-0.4,0c-0.3,0-0.6,0.1-0.8,0.3l-2.1,1.5l-4.8-0.9c-0.2,0-0.3,0-0.5,0.1l-0.7,0.5
					l4.2,1.5l-2,1.4l-1.5,0c-0.2,0-0.4,0.1-0.5,0.2l-0.7,0.5l2,1.1l7.3-5.1l1.4-1l0.6-0.4C92.2,148.5,91.3,149.1,91.3,149.1z"/>
			</g>
			<rect x="98.9" y="145.8" class="st14" width="81" height="12.3"/>
			<g>
				<line class="st15" x1="104.2" y1="149.9" x2="152.8" y2="149.9"/>
				<line class="st15" x1="104.2" y1="153.9" x2="121.6" y2="153.9"/>
			</g>
			
				<rect x="184.1" y="145.8" transform="matrix(-1 -1.224647e-16 1.224647e-16 -1 430.0081 303.8557)" class="st16" width="61.7" height="12.3"/>
			<g>
				<path class="st4" d="M196.9,151.6c0-1.3,1-2.3,2.4-2.3c0.7,0,1.3,0.3,1.7,0.7l-0.5,0.5c-0.3-0.3-0.7-0.5-1.2-0.5
					c-0.9,0-1.6,0.6-1.6,1.6c0,0.9,0.7,1.6,1.6,1.6c0.5,0,0.9-0.2,1.2-0.5l0.5,0.5c-0.4,0.5-1,0.7-1.8,0.7
					C197.9,153.8,196.9,152.9,196.9,151.6z"/>
				<path class="st4" d="M204.6,152.8h-2.2l-0.4,1h-0.8l2-4.4h0.8l2,4.4H205L204.6,152.8z M204.3,152.1l-0.8-1.9l-0.8,1.9H204.3z"/>
				<path class="st4" d="M210.4,149.4v4.4h-0.7l-2.4-3v3h-0.8v-4.4h0.7l2.4,3v-3H210.4z"/>
				<path class="st4" d="M211.2,151.6c0-1.3,1-2.3,2.4-2.3c0.7,0,1.3,0.3,1.8,0.7l-0.5,0.5c-0.3-0.3-0.7-0.5-1.2-0.5
					c-0.9,0-1.6,0.6-1.6,1.6c0,0.9,0.7,1.6,1.6,1.6c0.5,0,0.9-0.2,1.2-0.5l0.5,0.5c-0.4,0.5-1,0.7-1.8,0.7
					C212.2,153.8,211.2,152.9,211.2,151.6z"/>
				<path class="st4" d="M219.5,153.1v0.7h-3.3v-4.4h3.2v0.7H217v1.1h2.1v0.7H217v1.2H219.5z"/>
				<path class="st4" d="M220.4,149.4h0.8v3.7h2.3v0.7h-3.1V149.4z"/>
				<path class="st4" d="M227.5,153.1v0.7h-3.3v-4.4h3.2v0.7H225v1.1h2.1v0.7H225v1.2H227.5z"/>
				<path class="st4" d="M228.4,149.4h1.9c1.4,0,2.4,0.9,2.4,2.2c0,1.3-1,2.2-2.4,2.2h-1.9V149.4z M230.3,153.1c1,0,1.6-0.6,1.6-1.5
					c0-0.9-0.6-1.5-1.6-1.5h-1.1v3H230.3z"/>
			</g>
		</g>
		<g>
			<rect x="79.6" y="161.3" class="st14" width="14.8" height="12.3"/>
			<g>
				<path class="st4" d="M87.7,168.3l1.7,1.2l0.5-0.4c0.2-0.1,0.2-0.4,0.1-0.6l-1-1.1L87.7,168.3z"/>
				<path class="st4" d="M91.3,164.6L91.3,164.6l-0.4,0c-0.3,0-0.6,0.1-0.8,0.3l-2.1,1.5l-4.8-0.9c-0.2,0-0.3,0-0.5,0.1l-0.7,0.5
					l4.2,1.5l-2,1.4l-1.5,0c-0.2,0-0.4,0.1-0.5,0.2l-0.7,0.5l2,1.1l7.3-5.1l1.4-1l0.6-0.4C92.2,164.1,91.3,164.6,91.3,164.6z"/>
			</g>
			<rect x="98.9" y="161.3" class="st14" width="81" height="12.3"/>
			<g>
				<line class="st15" x1="104.2" y1="165.5" x2="152.8" y2="165.5"/>
				<line class="st15" x1="104.2" y1="169.4" x2="121.6" y2="169.4"/>
			</g>
			
				<rect x="184.1" y="161.3" transform="matrix(-1 -1.224647e-16 1.224647e-16 -1 430.0081 334.8763)" class="st16" width="61.7" height="12.3"/>
			<g>
				<path class="st4" d="M199.8,164.9h1.9c1.4,0,2.4,0.9,2.4,2.2c0,1.3-1,2.2-2.4,2.2h-1.9V164.9z M201.7,168.6c1,0,1.6-0.6,1.6-1.5
					s-0.6-1.5-1.6-1.5h-1.1v3H201.7z"/>
				<path class="st4" d="M208.3,168.6v0.7H205v-4.4h3.2v0.7h-2.4v1.1h2.1v0.7h-2.1v1.2H208.3z"/>
				<path class="st4" d="M209.2,164.9h0.8v3.7h2.3v0.7h-3.1V164.9z"/>
				<path class="st4" d="M215.9,168.3h-2.2l-0.4,1h-0.8l2-4.4h0.8l2,4.4h-0.9L215.9,168.3z M215.6,167.6l-0.8-1.9l-0.8,1.9H215.6z"
					/>
				<path class="st4" d="M219.4,167.7v1.6h-0.8v-1.5l-1.7-2.9h0.9l1.3,2.2l1.3-2.2h0.8L219.4,167.7z"/>
				<path class="st4" d="M224.9,168.6v0.7h-3.3v-4.4h3.2v0.7h-2.4v1.1h2.1v0.7h-2.1v1.2H224.9z"/>
				<path class="st4" d="M225.8,164.9h1.9c1.4,0,2.4,0.9,2.4,2.2c0,1.3-1,2.2-2.4,2.2h-1.9V164.9z M227.7,168.6c1,0,1.6-0.6,1.6-1.5
					s-0.6-1.5-1.6-1.5h-1.1v3H227.7z"/>
			</g>
		</g>
		<g>
			<rect x="79.6" y="176.8" class="st14" width="14.8" height="12.3"/>
			<g>
				<path class="st4" d="M87.7,183.8l1.7,1.2l0.5-0.4c0.2-0.1,0.2-0.4,0.1-0.6l-1-1.1L87.7,183.8z"/>
				<path class="st4" d="M91.3,180.1L91.3,180.1l-0.4,0c-0.3,0-0.6,0.1-0.8,0.3l-2.1,1.5l-4.8-0.9c-0.2,0-0.3,0-0.5,0.1l-0.7,0.5
					l4.2,1.5l-2,1.4l-1.5,0c-0.2,0-0.4,0.1-0.5,0.2l-0.7,0.5l2,1.1l7.3-5.1l1.4-1l0.6-0.4C92.2,179.6,91.3,180.1,91.3,180.1z"/>
			</g>
			<rect x="98.9" y="176.8" class="st14" width="81" height="12.3"/>
			<g>
				<line class="st15" x1="104.2" y1="181" x2="152.8" y2="181"/>
				<line class="st15" x1="104.2" y1="184.9" x2="121.6" y2="184.9"/>
			</g>
			
				<rect x="184.1" y="176.8" transform="matrix(-1 -1.224647e-16 1.224647e-16 -1 430.0081 365.8968)" class="st16" width="61.7" height="12.3"/>
			<g>
				<path class="st4" d="M196.9,182.6c0-1.3,1-2.3,2.4-2.3c0.7,0,1.3,0.3,1.7,0.7l-0.5,0.5c-0.3-0.3-0.7-0.5-1.2-0.5
					c-0.9,0-1.6,0.6-1.6,1.6c0,0.9,0.7,1.6,1.6,1.6c0.5,0,0.9-0.2,1.2-0.5l0.5,0.5c-0.4,0.5-1,0.7-1.8,0.7
					C197.9,184.9,196.9,183.9,196.9,182.6z"/>
				<path class="st4" d="M204.6,183.8h-2.2l-0.4,1h-0.8l2-4.4h0.8l2,4.4H205L204.6,183.8z M204.3,183.1l-0.8-1.9l-0.8,1.9H204.3z"/>
				<path class="st4" d="M210.4,180.4v4.4h-0.7l-2.4-3v3h-0.8v-4.4h0.7l2.4,3v-3H210.4z"/>
				<path class="st4" d="M211.2,182.6c0-1.3,1-2.3,2.4-2.3c0.7,0,1.3,0.3,1.8,0.7l-0.5,0.5c-0.3-0.3-0.7-0.5-1.2-0.5
					c-0.9,0-1.6,0.6-1.6,1.6c0,0.9,0.7,1.6,1.6,1.6c0.5,0,0.9-0.2,1.2-0.5l0.5,0.5c-0.4,0.5-1,0.7-1.8,0.7
					C212.2,184.9,211.2,183.9,211.2,182.6z"/>
				<path class="st4" d="M219.5,184.1v0.7h-3.3v-4.4h3.2v0.7H217v1.1h2.1v0.7H217v1.2H219.5z"/>
				<path class="st4" d="M220.4,180.4h0.8v3.7h2.3v0.7h-3.1V180.4z"/>
				<path class="st4" d="M227.5,184.1v0.7h-3.3v-4.4h3.2v0.7H225v1.1h2.1v0.7H225v1.2H227.5z"/>
				<path class="st4" d="M228.4,180.4h1.9c1.4,0,2.4,0.9,2.4,2.2c0,1.3-1,2.2-2.4,2.2h-1.9V180.4z M230.3,184.1c1,0,1.6-0.6,1.6-1.5
					s-0.6-1.5-1.6-1.5h-1.1v3H230.3z"/>
			</g>
		</g>
		<g>
			<rect x="79.6" y="192.3" class="st14" width="14.8" height="12.3"/>
			<g>
				<path class="st4" d="M87.7,199.3l1.7,1.2l0.5-0.4c0.2-0.1,0.2-0.4,0.1-0.6l-1-1.1L87.7,199.3z"/>
				<path class="st4" d="M91.3,195.6L91.3,195.6l-0.4,0c-0.3,0-0.6,0.1-0.8,0.3l-2.1,1.5l-4.8-0.9c-0.2,0-0.3,0-0.5,0.1l-0.7,0.5
					l4.2,1.5l-2,1.4l-1.5,0c-0.2,0-0.4,0.1-0.5,0.2l-0.7,0.5l2,1.1l7.3-5.1l1.4-1l0.6-0.4C92.2,195.1,91.3,195.6,91.3,195.6z"/>
			</g>
			<rect x="98.9" y="192.3" class="st14" width="81" height="12.3"/>
			<g>
				<line class="st15" x1="104.2" y1="196.5" x2="152.8" y2="196.5"/>
				<line class="st15" x1="104.2" y1="200.4" x2="121.6" y2="200.4"/>
			</g>
			
				<rect x="184.1" y="192.3" transform="matrix(-1 -1.224647e-16 1.224647e-16 -1 430.0081 396.9173)" class="st16" width="61.7" height="12.3"/>
			<g>
				<path class="st4" d="M199.8,195.9h1.9c1.4,0,2.4,0.9,2.4,2.2c0,1.3-1,2.2-2.4,2.2h-1.9V195.9z M201.7,199.6c1,0,1.6-0.6,1.6-1.5
					s-0.6-1.5-1.6-1.5h-1.1v3H201.7z"/>
				<path class="st4" d="M208.3,199.6v0.7H205v-4.4h3.2v0.7h-2.4v1.1h2.1v0.7h-2.1v1.2H208.3z"/>
				<path class="st4" d="M209.2,195.9h0.8v3.7h2.3v0.7h-3.1V195.9z"/>
				<path class="st4" d="M215.9,199.3h-2.2l-0.4,1h-0.8l2-4.4h0.8l2,4.4h-0.9L215.9,199.3z M215.6,198.6l-0.8-1.9l-0.8,1.9H215.6z"
					/>
				<path class="st4" d="M219.4,198.7v1.6h-0.8v-1.5l-1.7-2.9h0.9l1.3,2.2l1.3-2.2h0.8L219.4,198.7z"/>
				<path class="st4" d="M224.9,199.6v0.7h-3.3v-4.4h3.2v0.7h-2.4v1.1h2.1v0.7h-2.1v1.2H224.9z"/>
				<path class="st4" d="M225.8,195.9h1.9c1.4,0,2.4,0.9,2.4,2.2c0,1.3-1,2.2-2.4,2.2h-1.9V195.9z M227.7,199.6c1,0,1.6-0.6,1.6-1.5
					s-0.6-1.5-1.6-1.5h-1.1v3H227.7z"/>
			</g>
		</g>
		<g>
			<rect x="79.6" y="207.8" class="st14" width="14.8" height="12.3"/>
			<g>
				<path class="st4" d="M87.7,214.8l1.7,1.2l0.5-0.4c0.2-0.1,0.2-0.4,0.1-0.6l-1-1.1L87.7,214.8z"/>
				<path class="st4" d="M91.3,211.1L91.3,211.1l-0.4,0c-0.3,0-0.6,0.1-0.8,0.3l-2.1,1.5l-4.8-0.9c-0.2,0-0.3,0-0.5,0.1l-0.7,0.5
					l4.2,1.5l-2,1.4l-1.5,0c-0.2,0-0.4,0.1-0.5,0.2l-0.7,0.5l2,1.1l7.3-5.1l1.4-1l0.6-0.4C92.2,210.6,91.3,211.1,91.3,211.1z"/>
			</g>
			<rect x="98.9" y="207.8" class="st14" width="81" height="12.3"/>
			<g>
				<line class="st15" x1="104.2" y1="212" x2="152.8" y2="212"/>
				<line class="st15" x1="104.2" y1="216" x2="121.6" y2="216"/>
			</g>
			
				<rect x="184.1" y="207.8" transform="matrix(-1 -1.224647e-16 1.224647e-16 -1 430.0081 427.9379)" class="st16" width="61.7" height="12.3"/>
			<g>
				<path class="st4" d="M196.9,213.6c0-1.3,1-2.3,2.4-2.3c0.7,0,1.3,0.3,1.7,0.7l-0.5,0.5c-0.3-0.3-0.7-0.5-1.2-0.5
					c-0.9,0-1.6,0.6-1.6,1.6c0,0.9,0.7,1.6,1.6,1.6c0.5,0,0.9-0.2,1.2-0.5l0.5,0.5c-0.4,0.5-1,0.7-1.8,0.7
					C197.9,215.9,196.9,214.9,196.9,213.6z"/>
				<path class="st4" d="M204.6,214.8h-2.2l-0.4,1h-0.8l2-4.4h0.8l2,4.4H205L204.6,214.8z M204.3,214.1l-0.8-1.9l-0.8,1.9H204.3z"/>
				<path class="st4" d="M210.4,211.4v4.4h-0.7l-2.4-3v3h-0.8v-4.4h0.7l2.4,3v-3H210.4z"/>
				<path class="st4" d="M211.2,213.6c0-1.3,1-2.3,2.4-2.3c0.7,0,1.3,0.3,1.8,0.7l-0.5,0.5c-0.3-0.3-0.7-0.5-1.2-0.5
					c-0.9,0-1.6,0.6-1.6,1.6c0,0.9,0.7,1.6,1.6,1.6c0.5,0,0.9-0.2,1.2-0.5l0.5,0.5c-0.4,0.5-1,0.7-1.8,0.7
					C212.2,215.9,211.2,214.9,211.2,213.6z"/>
				<path class="st4" d="M219.5,215.1v0.7h-3.3v-4.4h3.2v0.7H217v1.1h2.1v0.7H217v1.2H219.5z"/>
				<path class="st4" d="M220.4,211.4h0.8v3.7h2.3v0.7h-3.1V211.4z"/>
				<path class="st4" d="M227.5,215.1v0.7h-3.3v-4.4h3.2v0.7H225v1.1h2.1v0.7H225v1.2H227.5z"/>
				<path class="st4" d="M228.4,211.4h1.9c1.4,0,2.4,0.9,2.4,2.2c0,1.3-1,2.2-2.4,2.2h-1.9V211.4z M230.3,215.1c1,0,1.6-0.6,1.6-1.5
					s-0.6-1.5-1.6-1.5h-1.1v3H230.3z"/>
			</g>
		</g>
	</g>
</g>
<g id="Character">
	<g>
		<rect x="288.9" y="269.6" class="st12" width="2.8" height="45.2"/>
		<rect x="288.9" y="269.6" class="st17" width="2.8" height="45.2"/>
		<rect x="298.9" y="269.6" class="st12" width="2.8" height="45.2"/>
		<rect x="298.9" y="269.6" class="st17" width="2.8" height="45.2"/>
		<path class="st12" d="M286.3,312.4H280v-4c0-0.6,0.5-1.1,1.1-1.1h4.1c0.6,0,1.1,0.5,1.1,1.1V312.4z"/>
		<path class="st13" d="M286.3,312.4H280v-4c0-0.6,0.5-1.1,1.1-1.1h4.1c0.6,0,1.1,0.5,1.1,1.1V312.4z"/>
		<path class="st12" d="M293.4,314.5h-6.3v-4c0-0.6,0.5-1.1,1.1-1.1h4.1c0.6,0,1.1,0.5,1.1,1.1V314.5z"/>
		<path class="st13" d="M293.4,314.5h-6.3v-4c0-0.6,0.5-1.1,1.1-1.1h4.1c0.6,0,1.1,0.5,1.1,1.1V314.5z"/>
		<path class="st12" d="M297.7,413.1c0,2.1-1.7,3.9-3.9,3.9c-2.1,0-3.9-1.7-3.9-3.9c0-2.1,1.7-3.9,3.9-3.9
			C296,409.3,297.7,411,297.7,413.1z"/>
		<polygon class="st12" points="305.5,406.2 269.3,406.2 269.3,409.6 269.3,411 269.3,416.8 271.7,416.8 273.3,411 274.8,411 
			274.8,417 277.2,417 278.8,411 305.5,411 		"/>
		<polygon class="st13" points="274.9,406.2 274.9,417 277.2,417 278.8,411 305.5,411 305.5,406.2 		"/>
		<path class="st7" d="M300.7,407.9h-31.5c-3.9,0-7.1-3.2-7.1-7.1v-83c0-3.9,3.2-7.1,7.1-7.1h31.5V407.9z"/>
		<path class="st17" d="M300.7,407.9h-31.5c-3.9,0-7.1-3.2-7.1-7.1v-83c0-3.9,3.2-7.1,7.1-7.1h31.5V407.9z"/>
		<path class="st14" d="M267.8,402.8L267.8,402.8c-0.8,0-1.5-0.7-1.5-1.5v-84.1c0-0.8,0.7-1.5,1.5-1.5l0,0c0.8,0,1.5,0.7,1.5,1.5
			v84.1C269.3,402.1,268.6,402.8,267.8,402.8z"/>
		<path class="st14" d="M278.8,404.2h20.1v-90.7h-20.1c-2.8,0-5,2.2-5,5v80.6C273.8,402,276,404.2,278.8,404.2z"/>
		<path class="st12" d="M303,409.1h-5.6v-98.4c0-0.8,0.6-1.4,1.4-1.4h2.8c0.8,0,1.4,0.6,1.4,1.4V409.1z"/>
		<path class="st12" d="M306.7,413.1c0,2.1-1.7,3.9-3.9,3.9c-2.1,0-3.9-1.7-3.9-3.9c0-2.1,1.7-3.9,3.9-3.9
			C305,409.3,306.7,411,306.7,413.1z"/>
		<path class="st17" d="M306.7,413.1c0,2.1-1.7,3.9-3.9,3.9c-2.1,0-3.9-1.7-3.9-3.9c0-2.1,1.7-3.9,3.9-3.9
			C305,409.3,306.7,411,306.7,413.1z"/>
		<path class="st7" d="M305,413.1c0,1.2-1,2.1-2.1,2.1c-1.2,0-2.1-1-2.1-2.1c0-1.2,1-2.1,2.1-2.1C304,411,305,411.9,305,413.1z"/>
		<path class="st13" d="M303,409.1h-5.6v-98.4c0-0.8,0.6-1.4,1.4-1.4h2.8c0.8,0,1.4,0.6,1.4,1.4V409.1z"/>
		<path class="st12" d="M301.8,272.8H289c-0.7,0-1.2-0.5-1.2-1.2v-2.1c0-0.7,0.5-1.2,1.2-1.2h12.8c0.7,0,1.2,0.5,1.2,1.2v2.1
			C303,272.3,302.5,272.8,301.8,272.8z"/>
		<path class="st13" d="M301.8,272.8H289c-0.7,0-1.2-0.5-1.2-1.2v-2.1c0-0.7,0.5-1.2,1.2-1.2h12.8c0.7,0,1.2,0.5,1.2,1.2v2.1
			C303,272.3,302.5,272.8,301.8,272.8z"/>
	</g>
	<g>
		<polygon class="st12" points="400,407.5 321.5,407.5 322.4,412.2 323.2,412.2 323.9,417 328.1,417 328.9,412.2 344.8,412.2 
			345.6,417 349.8,417 350.5,412.2 371,412.2 371.7,417 376,417 376.7,412.2 392.7,412.2 393.4,417 397.7,417 398.4,412.2 
			399.1,412.2 		"/>
		<path class="st7" d="M400.6,410.2H321c-2.5,0-4.5-2-4.5-4.5v-56.4c0-2.5,2-4.5,4.5-4.5h79.7c2.5,0,4.5,2,4.5,4.5v56.4
			C405.2,408.1,403.1,410.2,400.6,410.2z"/>
		<path class="st14" d="M405.2,348.8v57.2c0,2.3-1.8,4.1-4.1,4.1H374c2.3,0,4.1-1.8,4.1-4.1v-57.2c0-2.3-1.8-4.1-4.1-4.1h27.1
			C403.3,344.7,405.2,346.5,405.2,348.8z"/>
		<g>
			<path class="st12" d="M393,349v50.7c0,0.3-0.2,0.5-0.5,0.5c-0.3,0-0.5-0.2-0.5-0.5V349c0-2.3-1.8-4.2-4.1-4.3h2.7
				C392.1,345.6,393,347.2,393,349z"/>
		</g>
		<g>
			<ellipse class="st13" cx="358.1" cy="360.5" rx="4.4" ry="5"/>
			<path class="st13" d="M361,360.5c0,1.9-1.3,3.4-2.9,3.4s-2.9-1.5-2.9-3.4c0-1.9,1.3-3.4,2.9-3.4S361,358.6,361,360.5z"/>
			<polygon class="st13" points="353.4,366.9 364.2,364.4 364.6,366.2 353.7,368.5 			"/>
			<path class="st13" d="M356.5,383.6l1.9,9.9c0.2,0.9-0.7,1.7-1.6,1.4c-2.4-0.8-6.4-2.2-8.9-3.1c-1.1-0.4-1.3-1.7-0.5-2.5
				c2-1.8,5.2-4.7,7.1-6.4C355.2,382.3,356.3,382.7,356.5,383.6z"/>
			<path class="st13" d="M350.1,389l3.1-2.7c0.7-0.6,1.8-0.2,2,0.7l0.9,4.1c0.2,0.9-0.7,1.7-1.6,1.4l-4-1.4
				C349.6,390.7,349.4,389.6,350.1,389z"/>
			<path class="st13" d="M333.1,379.7c0,3.2-2.3,5.8-5.1,5.8c-2.8,0-5.1-2.6-5.1-5.8c0-3.2,2.3-5.8,5.1-5.8
				C330.8,374,333.1,376.5,333.1,379.7z"/>
			<rect x="319.9" y="378" class="st7" width="16.1" height="3.5"/>
			<rect x="319.9" y="378" class="st17" width="16.1" height="3.5"/>
			<path class="st14" d="M332.4,403.4l-4.8-2c-0.9-0.4-1.3-1.4-1-2.3l2-4.8c0.4-0.9,1.4-1.3,2.3-1l4.8,2c0.9,0.4,1.3,1.4,1,2.3
				l-2,4.8C334.3,403.3,333.3,403.8,332.4,403.4z"/>
			
				<rect x="324.2" y="400" transform="matrix(0.9249 0.3801 -0.3801 0.9249 177.1133 -95.545)" class="st7" width="12.6" height="1.5"/>
			
				<rect x="324.2" y="400" transform="matrix(0.9249 0.3801 -0.3801 0.9249 177.1133 -95.545)" class="st17" width="12.6" height="1.5"/>
			<polygon class="st14" points="330.8,357.1 347.5,348.1 349,352.6 331.6,361.2 			"/>
			<path class="st14" d="M370.9,378h-6.7c-0.9,0-1.7-0.8-1.7-1.7v-1.1c0-0.9,0.8-1.7,1.7-1.7h6.7c0.9,0,1.7,0.8,1.7,1.7v1.1
				C372.6,377.3,371.8,378,370.9,378z"/>
			<path class="st17" d="M348,375.7l-6.3-2.3c-0.9-0.3-1.3-1.3-1-2.2l0.4-1.1c0.3-0.9,1.3-1.3,2.2-1l6.3,2.3c0.9,0.3,1.3,1.3,1,2.2
				l-0.4,1.1C349.8,375.6,348.9,376,348,375.7z"/>
			<path class="st14" d="M374.1,400.2c0,2.6-2.1,4.7-4.7,4.7c-2.6,0-4.7-2.1-4.7-4.7c0-2.6,2.1-4.7,4.7-4.7
				C372,395.5,374.1,397.6,374.1,400.2z"/>
			<circle class="st13" cx="369.4" cy="400.2" r="3"/>
		</g>
	</g>
	<g>
		<path class="st12" d="M314.2,227.9c0,0,1.2-6.3,4.2-5.6c3,0.8,3.9,3,6.3,1.4c2.4-1.6,5.5-2.7,7-1.4c1.5,1.2,0.7,4.7,3.9,5.6
			c3.2,1,4.5,0.2,6.2,4.3c1.7,4.2-2.7,5.9,0,9.1c2.7,3.2,4.9,3.4,3.9,6c-1,2.6-4.6,6.4-3.9,8.7c0.7,2.2-4.1,11.4-9.3,11.7
			c-5.2,0.3-8.7,7.4-8.3,10.2c0.4,2.8-1.4,3.7-4,4.4c-2.6,0.7-4.9,4-4,5c0.8,1-2.5,4-2.5,4s2.6-1.6,0-4.2c-2.6-2.6-5.6-3.9-3.4-7.6
			c0,0-5.1-0.9-4.7-5.3c0.4-4.4,2-6.9-0.8-8.7c-2.8-1.8-5.3-7.2-2.8-9c2.6-1.9,3.4-9,1.8-14.1c-1.6-5.2,2.8-9.6,3.4-8.9
			C307.7,234.2,305.7,225.3,314.2,227.9z"/>
		<path class="st18" d="M305.2,260.2l5.9-3.3c0,0,3.6-0.2,4.3,0c0.7,0.2-2.3-10.6-2.3-10.8c0.1-0.2-3-0.9-4.1,0
			c-1.1,0.9-0.1,6.8-0.1,6.8l-7,4.4L305.2,260.2z"/>
		<path class="st14" d="M305.2,260.2l5.9-3.3c0,0,3.6-0.2,4.3,0c0.7,0.2-2.3-10.6-2.3-10.8c0.1-0.2-3-0.9-4.1,0
			c-1.1,0.9-0.1,6.8-0.1,6.8l-7,4.4L305.2,260.2z"/>
		<path class="st7" d="M321.8,262.6c0,0-16.8,0.6-18.1,0.5c-1.3-0.1,5-4.1,5-4.1l-4.2-4.2c0,0-13.2,5.6-14.1,9.7
			c-0.9,4.1,20.2,10.8,28.6,10.9C327.4,275.5,321.8,262.6,321.8,262.6z"/>
		<path class="st13" d="M320.6,275.3c-0.5,0.1-1,0.2-1.6,0.2c-2.9,0-7.4-0.8-11.9-2.1c-8.5-2.3-17.3-6.1-16.7-8.8
			c0.9-4.1,14.1-9.7,14.1-9.7l4.2,4.2c0,0-6.3,4-5,4.1c1.3,0.1,18.1-0.5,18.1-0.5S326.6,273.7,320.6,275.3z"/>
		<path class="st14" d="M320.6,275.3c-0.5,0.1-1,0.2-1.6,0.2c-2.9,0-7.4-0.8-11.9-2.1c2.7-3.3,11.3-2.8,11.3-2.8
			S319.6,273.1,320.6,275.3z"/>
		<polygon class="st18" points="308,409.3 314.1,408 313.4,399.1 312.6,391.1 305,391.4 306.6,400.9 		"/>
		<path class="st12" d="M316.2,405.6c0-0.7-8.6,0.2-8.6,0.2s-5,5.6-10.1,7c-5.1,1.4-2.1,4.4,3.6,4.1c5.7-0.2,10.1-0.4,14.1-0.6
			C319.3,416.2,316.6,412.9,316.2,405.6z"/>
		<path class="st19" d="M306.6,406.8c0,0-1.2-3.1-2.8-2.3C302,405.4,306.6,406.8,306.6,406.8s-3.9-0.9-4.2,0.4
			C302,409.2,306.6,406.8,306.6,406.8z"/>
		<polygon class="st14" points="306.6,401 313.4,399.3 312.6,391.1 305,391.4 		"/>
		<path class="st12" d="M282.4,328.5c1.7-9.4,36.6-9.5,59.6-12.7l25.2,29.8c0,0-31.3-8.1-62.1-8.1c0,0,6.7,17.7,9,57.6l-11.1,2.2
			C303,397.3,280.8,337.9,282.4,328.5z"/>
		<path class="st14" d="M282.4,328.5c1.7-9.4,36.6-9.5,59.6-12.7l25.2,29.8c0,0-31.3-8.1-62.1-8.1c0,0,6.7,17.7,9,57.6l-11.1,2.2
			C303,397.3,280.8,337.9,282.4,328.5z"/>
		<g>
			<polygon class="st7" points="334.3,254 353.8,254 367.2,304.4 330.3,308.5 331.8,293.1 326.2,286.3 			"/>
			<polygon class="st13" points="334.3,254 353.8,254 367.2,304.4 330.3,308.5 331.8,293.1 326.2,286.3 			"/>
		</g>
		<polygon class="st18" points="243.9,402.3 248.7,406.4 255.1,400.2 261,394.6 255.9,388.9 249.5,396 		"/>
		<path class="st12" d="M251.6,404.7c0.4-0.6-7-4.9-7-4.9s-7.4,1.5-12.3-0.4c-4.9-1.9-4.3,2.3,0.5,5.5c4.7,3.2,8.3,5.6,11.7,7.9
			C247.9,415,247.7,410.7,251.6,404.7z"/>
		<path class="st19" d="M243.2,399.9c0,0,0.8-3.2-0.9-3.5C240.3,396.1,243.2,399.9,243.2,399.9s-2.6-3.1-3.6-2.2
			C238.1,399.1,243.2,399.9,243.2,399.9z"/>
		<polygon class="st14" points="249.4,396.2 255,400.4 260.9,394.6 255.9,388.9 		"/>
		<path class="st12" d="M338.6,302.6c0.3,6.5,1,14.8,1,14.8c-29.1,7.2-41,14.8-46.4,21.3c-10.2,12.2-39.5,50.7-39.5,50.7l9.7,7.1
			c28.3-27.2,49.5-46.7,49.5-46.7c28.9,0.1,61.2-1.9,67.3-8c9-8.9,1.5-34.2-8.8-46.2L338.6,302.6z"/>
		<polygon class="st7" points="266.8,394.2 255.7,386 251.8,390.7 261.3,397.8 		"/>
		<g>
			<polygon points="370.6,293.1 372.2,297.7 340.2,306.1 338.3,300.7 			"/>
			
				<rect x="360.8" y="294.4" transform="matrix(-0.96 0.2801 -0.2801 -0.96 792.3287 483.8973)" class="st12" width="1.6" height="8.3"/>
			
				<rect x="346.6" y="298.3" transform="matrix(-0.97 0.2431 -0.2431 -0.97 763.1964 507.9436)" class="st4" width="7.2" height="5.5"/>
			
				<rect x="341" y="298.9" transform="matrix(-0.9599 0.2802 -0.2802 -0.9599 754.8834 498.2616)" class="st12" width="1.6" height="8.3"/>
		</g>
		<path class="st7" d="M338.3,300.7c0,0-9.2-20.2-19.9-32.5c0,0,3.3-5.9,16.4-9.2c13.1-3.3,24.6,3.7,24.6,3.7l11.8,32
			C371.2,294.8,351.5,300.3,338.3,300.7z"/>
		<g>
			<path class="st7" d="M347.6,256c0,0-0.9,22.5,0,26.8c0.9,4.4,16.1,25.7,16.1,25.7l16.8-6.3l-11.1-16.6
				C369.5,285.6,367.6,259.8,347.6,256z"/>
			<path class="st7" d="M324.2,261.6c0,0,4.9,23.2,7.6,31.5v17.8H328l1.9-17.8C329.9,293.1,306,267.4,324.2,261.6z"/>
			<path class="st17" d="M347.6,256c0,0-0.9,22.5,0,26.8c0.9,4.4,16.1,25.7,16.1,25.7l16.8-6.3l-11.1-16.6
				C369.5,285.6,367.6,259.8,347.6,256z"/>
			<path class="st17" d="M324.2,261.6c0,0,4.9,23.2,7.6,31.5v17.8H328l1.9-17.8C329.9,293.1,306,267.4,324.2,261.6z"/>
		</g>
		<g>
			<path class="st7" d="M347.3,279.5c0,0-3.9-15.8-4.1-18.5c-0.1-1.4,1.8-4.5,3.6-7.1c1.8-2.6,5.7-3,7.9-0.7c2.6,2.6,5,5.9,3.4,7.8
				c0,0-5-2.6-7.2-1.8C348.7,259.9,347.3,279.5,347.3,279.5z"/>
			<path class="st7" d="M327.8,277.9c0,0-4.9-10.2-6-13.6c-1.1-3.4,3.5-11.6,6-12.9c2.5-1.3,8.9,4.5,8.9,4.5
				S323.8,259.3,327.8,277.9z"/>
			<path class="st13" d="M347.3,279.5c0,0-3.9-15.8-4.1-18.5c-0.1-1.4,1.8-4.5,3.6-7.1c1.8-2.6,5.7-3,7.9-0.7c2.6,2.6,5,5.9,3.4,7.8
				c0,0-5-2.6-7.2-1.8C348.7,259.9,347.3,279.5,347.3,279.5z"/>
			<path class="st13" d="M327.8,277.9c0,0-4.9-10.2-6-13.6c-1.1-3.4,3.5-11.6,6-12.9c2.5-1.3,8.9,4.5,8.9,4.5
				S323.8,259.3,327.8,277.9z"/>
		</g>
		<g>
			<path class="st18" d="M334.8,268.9c0,0-4.8,0.7-5.6-2.9c0,0,1.1-1,0-3.3c-0.4-0.8-1-1.8-2-2.9c-0.8-0.9-1.8-1.8-3-2.8l6.1-7.9
				c0,0,0.6,2.4,2.1,4.7c1.5,2.3,3.8,4.6,7.3,4.7C339.8,258.6,340.2,262.8,334.8,268.9z"/>
			<path class="st14" d="M332.5,253.9c-0.8,2.9-1.8,6.1-3.2,8.9c-0.4-0.8-1-1.8-2-2.9c-0.8-0.9-1.8-1.8-3-2.8l6.1-7.9
				C330.3,249.2,331,251.5,332.5,253.9z"/>
		</g>
		<g>
			<path class="st18" d="M322.7,230.5c-8.5,0.6-10.9,5.4-10.9,14.2c0,11,3.1,18.6,13.5,15.5C339.5,255.9,336.8,229.5,322.7,230.5z"
				/>
			<path class="st20" d="M317.3,243.9c0,0-1,2.3-2.2,3.7c0,0,0.8,1.1,2.3,0.8L317.3,243.9z"/>
			<g>
				<path class="st12" d="M322.4,242.8c0,0.7,0.4,1.2,0.9,1.2c0.5,0,0.8-0.6,0.8-1.3c0-0.7-0.4-1.2-0.9-1.2
					C322.7,241.5,322.4,242.1,322.4,242.8z"/>
				<path class="st12" d="M323.4,241.5l-1.6-0.5C321.8,241,322.6,242.2,323.4,241.5z"/>
			</g>
			<g>
				<path class="st12" d="M313.7,243.1c0,0.7,0.4,1.2,0.9,1.2c0.5,0,0.8-0.6,0.8-1.3c0-0.7-0.4-1.2-0.9-1.2
					C314,241.8,313.7,242.4,313.7,243.1z"/>
				<path class="st12" d="M314.7,241.8l-1.6-0.5C313.1,241.3,313.9,242.5,314.7,241.8z"/>
			</g>
			<path class="st21" d="M322,236.9c0,0,2.4-0.5,3.8,1"/>
			<path class="st21" d="M315.8,237c0,0-1.5-0.4-3.3,1"/>
			<path class="st12" d="M333,244.2c0,0-4.5-6.7-4.3-12.1c0,0-17.4-5.6-16.9,11.5c0,0-2.8-15.1,11.8-16.5
				c14.6-1.4,16.1,19.9,9.1,26.9C332.7,254,335.8,248.4,333,244.2z"/>
			<path class="st18" d="M331.8,246.1c0-1.4,1.2-3.8,3.8-3.7c2.7,0.1,4.3,5.4-2.1,7.2C332.5,249.8,331.9,248.9,331.8,246.1z"/>
			<path class="st21" d="M318.4,253.3c0,0,1.6-4.1,5.5-3.7"/>
		</g>
		<g>
			<path class="st7" d="M317.9,317.2l5.8-5.1c0,0,8.9,2.9,11.1,4.6c2.1,1.7,9.5,6.6,9.5,6.6l-7.5,3.7c0,0-6.6-6.9-8.9-7.5
				C325.6,319,317.9,317.2,317.9,317.2z"/>
			<path class="st17" d="M317.9,317.2l5.8-5.1c0,0,8.9,2.9,11.1,4.6c2.1,1.7,9.5,6.6,9.5,6.6l-7.5,3.7c0,0-6.6-6.9-8.9-7.5
				C325.6,319,317.9,317.2,317.9,317.2z"/>
			<path class="st7" d="M324.7,316.2l5.1-1.9c0,0,9.4,7.8,8.5,7.8c-0.9,0-9.1,4-9.1,4l-6.9-8C322.3,318,323.5,316.6,324.7,316.2z"/>
			<path class="st18" d="M343.1,308.5l-4.8,5.2c0,0-2.8-0.1-3.6,0c-0.8,0.1-6.8,3.7-6.8,3.7s4.1,4.5,4.6,4.8
				c0.5,0.3,7.3-1.7,7.3-2.5c0.1-0.8,0.1-2.8,0.1-2.8s6.4-5.7,6.1-6C345.7,310.6,343.1,308.5,343.1,308.5z"/>
			<path class="st7" d="M355.4,261.8c-5.2,2.1,0.2,26.8-0.1,28.5c-0.3,1.7-17,22-17,22l5.3,3.9c0,0,15.5-16.2,18.5-21.2
				c3-4.9,2.4-23.4,1.6-25.5S358.1,260.8,355.4,261.8z"/>
			<path class="st13" d="M355.4,261.8c-5.2,2.1,0.2,26.8-0.1,28.5c-0.3,1.7-17,22-17,22l5.3,3.9c0,0,15.5-16.2,18.5-21.2
				c3-4.9,2.4-23.4,1.6-25.5S358.1,260.8,355.4,261.8z"/>
		</g>
		<polygon class="st7" points="300.8,393.5 314.1,391.3 314.1,396.4 302.4,398.2 		"/>
	</g>
</g>
</svg>
