<svg id="Layer_1" data-name="Layer 1" xmlns="http://www.w3.org/2000/svg" viewBox="0 0 470.4 470.4"><defs><style>.cls-1{fill:#da00de;}</style></defs><path class="cls-1" d="M114.8,448A67.05,67.05,0,0,0,182,515.2H518A67.05,67.05,0,0,0,585.2,448V112A67.06,67.06,0,0,0,518,44.8H182A67.05,67.05,0,0,0,114.8,112V246.75l291,9.8-73-73c13.84-10.31,28.75-21.48,40.78-30.62,41,45.42,78.76,86.67,114.45,127.05-41.22,45.28-77.69,87.53-114.45,127.05-14.94-11.35-26.4-19.9-40.78-30.63l73-73-291,9.8Z" transform="translate(-114.8 -44.8)"/></svg>