<svg xmlns="http://www.w3.org/2000/svg" viewBox="0 0 126.25 126.25"><defs><style>.cls-1{fill:#fdfdfd;}.cls-2{fill:#fdfdfd;}</style></defs><g id="Layer_2" data-name="Layer 2"><g id="Layer_1-2" data-name="Layer 1"><circle class="cls-1" cx="63.13" cy="63.13" r="63.13"/><path class="cls-2" d="M35.22,93.55l-5.43-.37A6.54,6.54,0,0,1,23.64,87c-.08-6.91.17-13.82,0-20.72-.07-3,.86-5.22,3.33-6.63a14.39,14.39,0,0,1,4.26-1.14,13,13,0,0,1,2.34,0c.14-3,.24-5.73.43-8.5a74,74,0,0,1,.81-8.3,10.62,10.62,0,0,1,9.26-9c1.46-3,2.53-5.95,4.19-8.5A16.4,16.4,0,0,1,59.78,17c7-1.18,12.92,1.19,17.58,6.43a13.82,13.82,0,0,1,3.46,7.64A1.65,1.65,0,0,0,82.5,32.7c3.2.45,5.21,2.62,7,5,2,2.6,2,5.75,2.18,8.79.19,3.89,0,7.79,0,11.73,2.11.24,3.75.31,5.34.63a7.11,7.11,0,0,1,5.31,6.67q-.06,7.69,0,15.4c0,1.74.14,3.48.12,5.22,0,3.83-3.4,7.32-7.12,7.14a24.45,24.45,0,0,0-3.53,0,1.5,1.5,0,0,0-1.11.8c-.89,3.55-5.74,7.15-9.18,7.34-5.87.33-11.73.82-17.6,1.07-2.75.12-5.52-.17-8.28-.29-3.11-.13-6.22-.22-9.32-.44-4.14-.28-7.72-1.73-10-5.47A21.86,21.86,0,0,1,35.22,93.55ZM87.65,62.43c-.45-7.7-.69-13-1.09-18.26-.3-4.05-2.08-6.65-6.6-7.05-2.58-.23-5.16-.5-7.75-.67a126.75,126.75,0,0,0-26.48.85c-3.71.52-6.31,3-6.56,6.52-.18,2.48-.1,5-.14,7.46-.15,8.41-.33,16.81-.42,25.22,0,2.58.18,5.16.34,7.73s.28,5.27.61,7.88a4.85,4.85,0,0,0,1.24,2.31c1.81,2.08,4.31,2.53,6.9,2.69l10.65.62a58.39,58.39,0,0,0,7.46.35c5-.33,10.06-1,15.09-1.46,2.45-.22,4.23-1.46,4.82-3.69A38.24,38.24,0,0,0,87,84.76C87.32,76.52,87.48,68.27,87.65,62.43ZM50.11,31.69H75.9c-1.61-6.23-6.21-10.53-15-10.12-2.28.1-4.66,1.84-6.67,3.28A9.88,9.88,0,0,0,50.11,31.69ZM33.52,63.17c-.65,0-1.35,0-2.05,0-2.06.06-2.85.78-3,2.91-.09,1.59,0,3.19,0,4.78q0,7.81.05,15.64a2,2,0,0,0,2,2c1.16.13,2.34.13,3.67.19C34,80.26,33.76,71.79,33.52,63.17ZM91.76,88.55h2.55c2.2,0,3.15-.91,3.16-3.1,0-6.12,0-12.24,0-18.36,0-3.49-1.72-4.7-5-3.65C92.25,71.79,92,80.08,91.76,88.55Z"/><path class="cls-2" d="M77.56,63.28a11,11,0,0,1-.07,3.16,3.82,3.82,0,0,1-1.74,2.29,2.17,2.17,0,0,1-2.87-1.82c-.17-1.16.09-3.07-.48-3.35-1.23-.6-2.86-.46-4.33-.46-7.19,0-14.38.13-21.56.09a4.3,4.3,0,0,1-2.68-1c-1.11-1-.25-3.09,1.48-3.3a70.85,70.85,0,0,1,7.29-.29c3.53,0,7.06,0,10.59,0q8.46,0,16.91.08a2.06,2.06,0,0,1,2.26,2,1.93,1.93,0,0,1-1.76,2.41C79.73,63.23,78.83,63.2,77.56,63.28Z"/></g></g></svg>