<?xml version="1.0" encoding="utf-8"?>
<!-- Generator: Adobe Illustrator 24.2.3, SVG Export Plug-In . SVG Version: 6.00 Build 0)  -->
<svg version="1.1" id="Layer_1" xmlns="http://www.w3.org/2000/svg" xmlns:xlink="http://www.w3.org/1999/xlink" x="0px" y="0px"
	 viewBox="0 0 231 69.9" style="enable-background:new 0 0 231 69.9;" xml:space="preserve">
<style type="text/css">
	.st0{fill:#fdfdfd;}
</style>
<g id="Layer_2_1_">
	<g id="Layer_1-2">
		<g>
			<path class="st0" d="M9.3,62.6L5,62.3c-2.7-0.2-4.8-2.3-4.9-5C0,51.8,0.2,46.2,0,40.7c0-2.4,0.7-4.2,2.7-5.3
				c1.1-0.5,2.2-0.8,3.4-0.9c0.6-0.1,1.3-0.1,1.9,0c0.1-2.4,0.2-4.6,0.4-6.8c0.1-2.2,0.3-4.5,0.7-6.7c0.6-3.8,3.6-6.8,7.4-7.2
				c1-2.3,2.1-4.6,3.3-6.8c2.1-3.2,5.5-5.2,9.2-5.8c5.6-0.9,10.4,1,14.1,5.2c1.5,1.7,2.5,3.9,2.8,6.1c0,0.7,0.6,1.3,1.3,1.3l0,0
				c2.6,0.4,4.2,2.1,5.6,4c1.6,2.1,1.6,4.6,1.7,7.1c0.2,3.1,0,6.3,0,9.4c1.7,0.2,3,0.2,4.3,0.5c2.5,0.6,4.2,2.8,4.3,5.3
				c0,4.1,0,8.3,0,12.4c0,1.4,0.1,2.8,0.1,4.2c0,3.1-2.6,5.7-5.7,5.7c-0.9-0.1-1.9-0.1-2.8,0c-0.4,0.1-0.7,0.3-0.9,0.6
				c-0.7,2.8-4.6,5.8-7.4,5.9c-4.7,0.3-9.4,0.7-14.1,0.9c-2.2,0.1-4.4-0.1-6.6-0.2c-2.5-0.1-5-0.2-7.5-0.4c-3.3-0.2-6.2-1.4-8-4.4
				C9.8,64.1,9.5,63.4,9.3,62.6z M51.4,37.6c-0.4-6.2-0.6-10.4-0.9-14.7c-0.2-3.3-1.7-5.3-5.3-5.7C43.1,17,41,16.8,39,16.7
				c-7.1-0.5-14.2-0.3-21.3,0.7c-3,0.4-5.1,2.4-5.3,5.2c-0.1,2-0.1,4-0.1,6C12.2,35.3,12,42.1,12,48.8c0,2.1,0.1,4.2,0.3,6.2
				s0.2,4.2,0.5,6.3c0.2,0.7,0.5,1.3,1,1.9c1.4,1.7,3.5,2,5.5,2.2c2.9,0.2,5.7,0.3,8.6,0.5c2,0.2,4,0.3,6,0.3
				c4-0.3,8.1-0.8,12.1-1.2c1.8,0,3.4-1.2,3.9-3c0.6-2.1,0.9-4.3,1-6.6C51.1,48.9,51.2,42.3,51.4,37.6z M21.2,12.9h20.7
				c-1.3-5-5-8.4-12-8.1c-1.8,0.1-3.7,1.5-5.4,2.6C22.8,8.7,21.5,10.7,21.2,12.9z M8,38.2c-0.5,0-1.1,0-1.7,0
				c-1.6,0-2.3,0.6-2.4,2.3c-0.1,1.3,0,2.6,0,3.8c0,4.2,0,8.4,0,12.5c0,0.9,0.6,1.6,1.5,1.6h0.1c0.9,0.1,1.9,0.1,2.9,0.2
				C8.3,51.9,8.1,45.1,8,38.2z M54.7,58.6h2c1.8,0,2.5-0.7,2.5-2.5c0-4.9,0-9.8,0-14.7c0-2.8-1.4-3.8-4-2.9
				C55.1,45.1,54.9,51.8,54.7,58.6z"/>
			<path class="st0" d="M43.3,38.3c0.1,0.8,0.1,1.7-0.1,2.5c-0.2,0.8-0.7,1.4-1.4,1.8c-0.9,0.3-1.9-0.2-2.2-1.1
				c0-0.1-0.1-0.3-0.1-0.4c-0.1-0.9,0.1-2.5-0.4-2.7C38,38,36.8,37.9,35.6,38c-5.8,0-11.6,0.1-17.3,0.1c-0.8,0-1.5-0.3-2.1-0.8
				c-0.9-0.8-0.2-2.5,1.2-2.7c1.9-0.2,3.9-0.3,5.9-0.2c2.8,0,5.7,0,8.5,0l13.6,0.1c0.9-0.1,1.7,0.6,1.8,1.5v0.1
				c0.2,0.8-0.3,1.7-1.1,1.9c-0.1,0-0.2,0-0.3,0C45,38.3,44.3,38.2,43.3,38.3z"/>
		</g>
		<path class="st0" d="M83.9,60.4c-2.4,0.1-4.7-0.7-6.4-2.4c-1.6-1.6-2.3-3.8-2.3-6.8v-14h-4.8v-4.8h4.8v-9.2h6v9.2h7.9v4.8h-7.9
			v13.4c-0.1,1.2,0.2,2.4,0.9,3.4c0.6,0.8,1.6,1.2,2.7,1.2c0.7,0,1.3-0.1,2-0.3c0.7-0.2,1.4-0.5,2-0.8l1.3,4.5
			c-0.9,0.6-1.8,1-2.8,1.3C86.2,60.2,85.1,60.4,83.9,60.4z"/>
		<path class="st0" d="M93.1,59.6V32.4h5.5l0.3,4.5c0.6-1.4,1.6-2.7,2.9-3.6c1.3-0.9,2.8-1.3,4.3-1.3c0.5,0,1,0,1.5,0.1
			c0.4,0.1,0.9,0.2,1.3,0.4l-0.7,5.8c-0.4-0.1-0.8-0.2-1.2-0.3c-0.4,0-0.8,0-1.2,0c-1.9-0.1-3.7,0.7-4.9,2.1
			c-1.3,1.6-1.9,3.7-1.8,5.8v13.8L93.1,59.6L93.1,59.6z"/>
		<path class="st0" d="M118.2,24.8c0,0.6-0.2,1.3-0.5,1.8c-0.3,0.6-0.8,1-1.3,1.4c-1.1,0.7-2.5,0.7-3.6,0c-0.5-0.3-1-0.8-1.3-1.3
			c-0.7-1.1-0.7-2.5,0-3.6c0.3-0.5,0.8-1,1.3-1.3c1.1-0.7,2.5-0.7,3.6,0c0.5,0.3,1,0.8,1.3,1.3C118,23.6,118.2,24.2,118.2,24.8z
			 M111.6,59.6V32.4h6v27.2L111.6,59.6z"/>
		<path class="st0" d="M122.3,69.9V32.4h5.5l0.3,4.4c0.9-1.6,2.3-2.9,3.9-3.8c1.6-0.9,3.5-1.4,5.4-1.4c1.7,0,3.4,0.4,5,1.1
			c1.5,0.7,2.9,1.7,4,3c1.2,1.3,2.1,2.9,2.7,4.5c0.7,1.8,1,3.7,1,5.6c0,2-0.3,3.9-1,5.7c-0.6,1.7-1.6,3.3-2.8,4.6
			c-1.1,1.3-2.5,2.4-4.1,3.1c-1.6,0.7-3.4,1.1-5.1,1.1s-3.4-0.4-4.9-1.1c-1.5-0.8-2.8-1.9-3.7-3.3v13.9L122.3,69.9L122.3,69.9z
			 M136,55c1.4,0,2.8-0.4,4-1.2s2.2-1.9,2.8-3.2c0.7-1.4,1-3,1-4.6s-0.3-3.2-1-4.6c-0.6-1.3-1.6-2.4-2.8-3.2c-2.4-1.6-5.6-1.6-8,0
			c-1.2,0.8-2.2,1.9-2.8,3.2c-0.7,1.4-1,3-1,4.6s0.3,3.2,1,4.6c0.6,1.3,1.6,2.4,2.8,3.2C133.2,54.6,134.6,55,136,55z"/>
		<path class="st0" d="M153.5,69.9V32.4h5.5l0.3,4.4c0.9-1.6,2.3-2.9,3.8-3.8c1.6-0.9,3.5-1.4,5.4-1.4c1.7,0,3.4,0.4,5,1.1
			c1.5,0.7,2.9,1.7,4,3c1.2,1.3,2.1,2.9,2.7,4.6c0.7,1.8,1,3.7,1,5.6c0,2-0.3,3.9-1,5.7c-0.6,1.7-1.6,3.3-2.8,4.6
			c-1.1,1.3-2.6,2.3-4.1,3.1c-1.6,0.7-3.3,1.1-5.1,1.1c-1.7,0-3.4-0.4-4.9-1.1c-1.5-0.8-2.8-1.9-3.7-3.3v13.9H153.5z M167.1,55
			c1.4,0,2.8-0.4,4-1.2s2.2-1.9,2.8-3.2c0.7-1.4,1-3,1-4.6s-0.3-3.2-1-4.6c-0.6-1.3-1.6-2.4-2.8-3.2c-2.4-1.6-5.6-1.6-8,0
			c-1.2,0.8-2.2,1.9-2.8,3.2c-0.7,1.4-1,3-1,4.6s0.3,3.2,1,4.6c0.6,1.3,1.6,2.4,2.8,3.2S165.7,55,167.1,55z"/>
		<path class="st0" d="M197.4,60.4c-1.9,0-3.8-0.3-5.5-1.1c-1.7-0.7-3.1-1.7-4.4-3s-2.2-2.9-2.9-4.5c-0.7-1.9-1-3.8-1-5.8
			c0-1.9,0.3-3.9,1-5.7c0.6-1.7,1.6-3.2,2.8-4.5s2.6-2.3,4.2-3c1.7-0.7,3.5-1.1,5.3-1.1s3.6,0.3,5.2,1c1.6,0.7,3,1.6,4.1,2.9
			c1.2,1.3,2.1,2.8,2.7,4.5c0.6,1.8,1,3.8,0.9,5.7v1.8h-20.2c0.1,1.5,0.6,2.9,1.3,4.1c0.6,1.1,1.5,2,2.6,2.7c1.1,0.6,2.4,1,3.7,0.9
			c2.7,0.1,5.3-1.4,6.6-3.8l5.3,2c-0.6,1.4-1.6,2.7-2.7,3.7c-1.2,1.1-2.6,1.9-4.2,2.4C200.9,60.1,199.2,60.4,197.4,60.4z
			 M197.1,36.5c-1.1,0-2.3,0.3-3.2,0.8c-1,0.6-1.8,1.4-2.4,2.3c-0.7,1.1-1.1,2.3-1.4,3.5h13.7c-0.2-1.2-0.6-2.4-1.2-3.5
			c-0.6-1-1.4-1.8-2.3-2.3C199.2,36.8,198.2,36.5,197.1,36.5z"/>
		<path class="st0" d="M213.4,59.6V32.4h5.5l0.3,4.5c0.6-1.4,1.6-2.7,2.9-3.6c1.3-0.9,2.8-1.3,4.4-1.3c0.5,0,1,0,1.5,0.1
			c0.4,0.1,0.9,0.2,1.3,0.4l-0.7,5.8c-0.4-0.1-0.8-0.2-1.2-0.3s-0.8-0.1-1.2-0.1c-1.9-0.1-3.7,0.7-4.9,2.1c-1.3,1.6-1.9,3.7-1.8,5.8
			v13.8C219.5,59.6,213.4,59.6,213.4,59.6z"/>
	</g>
</g>
</svg>
