<?xml version="1.0" encoding="utf-8"?>
<!-- Generator: Adobe Illustrator 24.2.3, SVG Export Plug-In . SVG Version: 6.00 Build 0)  -->
<svg version="1.1" id="Layer_1" xmlns="http://www.w3.org/2000/svg" xmlns:xlink="http://www.w3.org/1999/xlink" x="0px" y="0px"
	 viewBox="0 0 234.6 79.9" style="enable-background:new 0 0 234.6 79.9;" xml:space="preserve">
<style type="text/css">
	.st0{fill:#fdfdfd;}
	.st1{enable-background:new    ;}
</style>
<g id="Layer_1_1_">
	<g id="Layer_2_1_">
		<g id="Layer_1-2">
			<path class="st0" d="M172.4,71.3l-5-0.3c-3.1-0.2-5.6-2.7-5.7-5.8c-0.1-6.4,0.1-12.8-0.1-19.2c0-2.8,0.8-4.9,3.1-6.1
				c1.2-0.6,2.6-0.9,3.9-1c0.7-0.1,1.5-0.1,2.2,0c0.1-2.8,0.2-5.3,0.5-7.9c0.1-2.6,0.4-5.2,0.8-7.8c0.6-4.4,4.2-7.8,8.6-8.3
				c1.2-2.7,2.4-5.3,3.8-7.9c2.4-3.6,6.3-6.1,10.6-6.7c6.1-1.1,12.4,1.2,16.3,6c1.7,2,2.9,4.4,3.2,7.1c0,0.8,0.7,1.5,1.5,1.5l0,0
				c3,0.5,4.9,2.4,6.5,4.6c1.9,2.4,1.9,5.3,2,8.2c0.2,3.6,0,7.3,0,10.9c1.7,0.1,3.3,0.3,5,0.6c2.8,0.7,4.9,3.2,5,6.1v14.3
				c0,1.6,0.1,3.2,0.1,4.9c0,3.6-3,6.6-6.6,6.6c-1.1-0.1-2.2-0.1-3.2,0c-0.4,0.1-0.8,0.3-1,0.7c-0.8,3.2-5.3,6.7-8.6,6.8
				c-5.4,0.3-10.9,0.8-16.3,1c-2.5,0.1-5.1-0.1-7.6-0.2c-2.9-0.1-5.8-0.2-8.7-0.5c-3.8-0.2-7.2-1.6-9.3-5.1
				C172.9,73.1,172.6,72.2,172.4,71.3z M221.1,42.4c-0.5-7.2-0.7-12-1-17c-0.2-3.8-2-6.1-6.1-6.6c-2.4-0.2-4.9-0.5-7.2-0.6
				c-8.2-0.6-16.5-0.3-24.6,0.8c-3.5,0.5-5.9,2.8-6.1,6c-0.1,2.3-0.1,4.6-0.1,6.9c-0.1,7.8-0.3,15.6-0.3,23.4c0,2.4,0.1,4.9,0.3,7.2
				c0.2,2.3,0.2,4.9,0.6,7.3c0.2,0.8,0.6,1.6,1.2,2.2c1.6,2,4.1,2.3,6.4,2.5c3.4,0.2,6.6,0.3,10,0.6c2.3,0.2,4.6,0.3,6.9,0.3
				c4.6-0.3,9.4-0.9,14-1.4c2.1,0,4-1.4,4.5-3.5c0.7-2.5,1.1-5.1,1.2-7.6C220.8,55.5,220.9,47.8,221.1,42.4L221.1,42.4z M186.1,13.8
				h24c-1.5-5.8-5.8-9.7-13.9-9.4c-2.1,0.1-4.3,1.7-6.2,3C187.9,9,186.5,11.3,186.1,13.8L186.1,13.8z M170.9,43.1h-2
				c-1.9,0-2.7,0.7-2.8,2.7c-0.1,1.5,0,3,0,4.4v14.5c-0.1,1,0.7,1.8,1.6,1.8h0.1h0.1c1,0.1,2.2,0.1,3.4,0.2
				C171.2,58.9,171,51.1,170.9,43.1L170.9,43.1z M224.9,66.7h2.3c2.1,0,2.9-0.8,2.9-2.9v-17c0-3.2-1.6-4.4-4.6-3.4
				C225.4,51.1,225.1,58.8,224.9,66.7L224.9,66.7z"/>
			<path class="st0" d="M211.7,43.2c0.1,1,0.1,1.9-0.1,2.9c-0.2,0.9-0.8,1.6-1.6,2.1c-1.1,0.3-2.2-0.2-2.5-1.3
				c0-0.1-0.1-0.3-0.1-0.5c-0.1-1,0.1-2.9-0.5-3.1c-1.3-0.4-2.7-0.6-4.1-0.5c-6.7,0-13.4,0.1-20,0.1c-0.9,0-1.8-0.3-2.4-0.9
				c-1-0.9-0.2-2.9,1.4-3.1c2.3-0.3,4.5-0.3,6.8-0.2h9.8l15.7,0.1c1.1-0.1,2,0.7,2.1,1.7v0.1c0.2,1-0.3,1.9-1.3,2.2h-0.3
				C213.6,43.1,212.7,43.2,211.7,43.2z"/>
		</g>
	</g>
</g>
<g class="st1">
	<path class="st0" d="M38.2,66.2l7.9-2.6c1.4-0.4,2.5-1.3,3.3-2.4c0.8-1.2,1.2-2.5,1.2-3.9v-19h6v10.3c0,0.7,0.3,1.2,0.8,1.6
		c0.5,0.4,1.2,0.6,1.8,0.6h4c0.5,0,0.8,0.3,0.8,0.8v5.6c0,0.5-0.3,0.8-0.8,0.8h-3c-0.6,0-1.3-0.1-2-0.3S57,57,56.6,56.3v1
		c0,1.4-0.2,2.7-0.7,4s-1.1,2.4-1.9,3.5c-0.8,1.1-1.8,2-2.9,2.8c-1.1,0.8-2.3,1.4-3.6,1.8L40,71.9L38.2,66.2z"/>
	<path class="st0" d="M63.3,50.7H68c0.7,0,1.4-0.2,1.9-0.7c0.6-0.4,0.9-1,1-1.8l2-9.9l5.9,1l-1.6,8.3c-0.2,0.8,0,1.5,0.5,2.1
		s1.2,0.9,2,0.9H84c0.2,0,0.4,0.1,0.5,0.2c0.1,0.2,0.2,0.4,0.2,0.6V57c0,0.2-0.1,0.4-0.2,0.5c-0.1,0.2-0.3,0.2-0.5,0.2h-4.2
		c-1.2,0-2.3-0.3-3.5-1c-1.2-0.6-2-1.4-2.4-2.3c-0.3,0.4-0.6,0.9-1.1,1.2c-0.5,0.4-1,0.7-1.6,1s-1.2,0.6-1.8,0.7
		c-0.6,0.2-1.3,0.2-1.9,0.2h-4.2c-0.5,0-0.8-0.3-0.8-0.8v-5.6c0-0.2,0.1-0.4,0.2-0.6C62.9,50.8,63.1,50.7,63.3,50.7z M69.5,70.8
		h-6.3v-6.3h6.3V70.8z M67.7,72.9H74v6.3h-6.3V72.9z M72.3,70.8v-6.3h6.3v6.3H72.3z"/>
	<path class="st0" d="M83.2,57.1v-5.6c0-0.2,0.1-0.4,0.2-0.6c0.1-0.2,0.3-0.2,0.5-0.2h12.6c0.7,0,1.4-0.3,1.9-0.8s0.8-1.2,0.8-1.9
		V36.7h6V48c0,1.4-0.3,2.6-0.8,3.8s-1.2,2.2-2.1,3.1c-0.9,0.9-1.9,1.6-3.1,2.1s-2.5,0.8-3.8,0.8H84c-0.2,0-0.4-0.1-0.5-0.2
		C83.3,57.5,83.2,57.3,83.2,57.1z M91.1,70.8h-6.3v-6.3h6.3V70.8z M100.2,70.8h-6.3v-6.3h6.3V70.8z"/>
	<path class="st0" d="M103.1,66.2l7.9-2.6c1.4-0.4,2.5-1.3,3.3-2.4c0.8-1.2,1.2-2.5,1.2-3.9v-19h6v10.3c0,0.7,0.3,1.2,0.8,1.6
		c0.5,0.4,1.2,0.6,1.8,0.6h4c0.5,0,0.8,0.3,0.8,0.8v5.6c0,0.5-0.3,0.8-0.8,0.8h-3c-0.6,0-1.3-0.1-2-0.3s-1.2-0.7-1.6-1.4v1
		c0,1.4-0.2,2.7-0.7,4s-1.1,2.4-1.9,3.5c-0.8,1.1-1.8,2-2.9,2.8s-2.3,1.4-3.6,1.8l-7.6,2.6L103.1,66.2z"/>
	<path class="st0" d="M127.5,51.6c0-0.2,0.1-0.4,0.2-0.6s0.3-0.2,0.5-0.2h9.3c0.7,0,1.4-0.3,1.9-0.8s0.8-1.2,0.8-1.9V36.7h6V48
		c0,1.4-0.3,2.6-0.8,3.8s-1.2,2.2-2.1,3.1c-0.9,0.9-1.9,1.6-3.1,2.1c-1.2,0.5-2.5,0.8-3.8,0.8h-8.2c-0.2,0-0.4-0.1-0.5-0.2
		s-0.2-0.3-0.2-0.5L127.5,51.6L127.5,51.6z M137.2,31.7h-6.3v-6.3h6.3V31.7z M146.3,31.7H140v-6.3h6.3V31.7z"/>
</g>
</svg>
